<svg viewBox="0 0 24 24" xmlns="http://www.w3.org/2000/svg">
<path fill="#616161" d="M12.5202 1.89092L14.8654 9.10347H22.4538C22.5693 9.10352 22.6817 9.14013 22.7751 9.20806C22.8684 9.27599 22.9379 9.37174 22.9734 9.48157C23.009 9.59141 23.0089 9.70968 22.973 9.81943C22.9372 9.92918 22.8675 10.0248 22.774 10.0925L16.6346 14.5522L18.9798 21.7702C19.0153 21.8799 19.0152 21.998 18.9796 22.1076C18.9439 22.2173 18.8745 22.3128 18.7812 22.3806C18.688 22.4484 18.5757 22.4849 18.4604 22.485C18.3451 22.4851 18.2328 22.4488 18.1394 22.3811L12 17.9203L5.86168 22.3822C5.76832 22.4498 5.65596 22.4862 5.54068 22.4861C5.42539 22.486 5.31309 22.4495 5.21984 22.3817C5.12659 22.3139 5.05717 22.2184 5.02151 22.1087C4.98585 21.9991 4.98578 21.881 5.02131 21.7713L7.36539 14.5588L1.22598 10.0968C1.13239 10.0291 1.06269 9.9334 1.02689 9.82354C0.99109 9.71369 0.991036 9.59531 1.02673 9.48542C1.06243 9.37553 1.13205 9.27979 1.22557 9.21195C1.3191 9.14411 1.43172 9.10766 1.54726 9.10784H9.13684L11.4809 1.89529C11.5161 1.78542 11.5852 1.68951 11.6783 1.62131C11.7713 1.55311 11.8836 1.51612 11.999 1.51563C12.1143 1.51514 12.2269 1.55119 12.3205 1.61861C12.4142 1.68602 12.484 1.78135 12.5202 1.89092Z"></path>
</svg>
