<svg xmlns="http://www.w3.org/2000/svg" viewBox="0 0 24 24">
<path fill="#616161" d="m16.399 17.303c.254.47.381 1.035.381 1.694 0 1.203-.438 2.172-1.312 2.904-.874.735-2.045 1.099-3.512 1.099-1.09 0-2.111-.202-3.06-.606-.95-.404-1.734-.973-2.355-1.706l1.241-1.467c.545.583 1.18 1.037 1.904 1.368.724.328 1.462.494 2.214.494.809 0 1.433-.17 1.877-.508.44-.34.662-.817.662-1.439 0-.565-.179-1.006-.536-1.324-.357-.321-1.043-.695-2.059-1.129l-1.552-.677c-.789-.338-1.447-.666-1.974-.987-.526-.319-.964-.737-1.312-1.255-.348-.517-.522-1.16-.522-1.931 0-1.561.799-2.784 2.397-3.668v-.113c-.922-.771-1.383-1.777-1.383-3.018 0-1.203.433-2.176 1.298-2.92.864-.742 1.983-1.113 3.356-1.113 2.032 0 3.685.695 4.965 2.087l-1.157 1.439c-1.11-1.072-2.354-1.546-3.707-1.546-.734 0-1.304.121-1.736.488-.433.367-.649.851-.649 1.453s.173 1.077.521 1.425c.348.347.926.7 1.735 1.056l1.467.65c.884.413 1.584.78 2.102 1.099.517.321.949.744 1.297 1.269.348.528.522 1.194.522 2.004 0 .789-.211 1.476-.635 2.059-.424.584-.955 1.072-1.594 1.467v.113c.489.356.861.771 1.114 1.24zm-1.058-4.568c0-.695-.221-1.233-.664-1.609-.441-.374-1.218-.808-2.328-1.297-1.128-.489-1.729-.763-1.805-.817-.565.3-1.015.647-1.354 1.042s-.508.895-.508 1.496c0 .619.229 1.118.691 1.494.46.376 1.133.753 2.017 1.127l2.285.99c1.109-.678 1.664-1.486 1.664-2.427z"></path>
</svg>