<svg viewBox="0 0 24 24" xmlns="http://www.w3.org/2000/svg">
<path fill="#616161" d="M14.1355 2.66209C15.56 2.66209 16.9525 3.08451 18.1369 3.87592C19.3214 4.66733 20.2445 5.79219 20.7897 7.10825C21.3348 8.42432 21.4774 9.87248 21.1995 11.2696C20.9216 12.6667 20.2356 13.9501 19.2284 14.9574C18.2211 15.9646 16.9378 16.6506 15.5406 16.9285C14.1435 17.2064 12.6953 17.0638 11.3793 16.5186C10.0632 15.9735 8.93834 15.0504 8.14693 13.8659C7.35552 12.6815 6.93311 11.289 6.93311 9.86449C6.93546 7.95502 7.69503 6.12442 9.04523 4.77422C10.3954 3.42401 12.226 2.66444 14.1355 2.66209ZM14.1355 1C12.3823 1 10.6684 1.51989 9.21066 2.49394C7.7529 3.46798 6.61672 4.85242 5.94579 6.4722C5.27485 8.09197 5.09931 9.87432 5.44135 11.5939C5.78338 13.3134 6.62765 14.8929 7.86737 16.1326C9.10709 17.3724 10.6866 18.2166 12.4061 18.5587C14.1257 18.9007 15.908 18.7251 17.5278 18.0542C19.1476 17.3833 20.532 16.2471 21.5061 14.7893C22.4801 13.3316 23 11.6177 23 9.86449C23 7.51348 22.0661 5.25876 20.4037 3.59635C18.7412 1.93393 16.4865 1 14.1355 1Z"></path>
<path fill="#616161" d="M3.51352 22.8366L10.1386 16.2104L7.78842 13.8602L1.16221 20.4864C1.05835 20.5903 1 20.7312 1 20.8781C1 21.025 1.05835 21.1659 1.16221 21.2698L2.72901 22.8366C2.78048 22.8882 2.84161 22.9291 2.90892 22.957C2.97623 22.985 3.04839 22.9994 3.12127 22.9994C3.19414 22.9994 3.2663 22.985 3.33361 22.957C3.40092 22.9291 3.46205 22.8882 3.51352 22.8366Z"></path>
</svg>